<?xml version="1.0" encoding="UTF-8"?>
<svg width="16px" height="16px" viewBox="0 0 16 16" version="1.1" xmlns="http://www.w3.org/2000/svg" xmlns:xlink="http://www.w3.org/1999/xlink">
    <!-- Generator: Sketch 49.1 (51147) - http://www.bohemiancoding.com/sketch -->
    <title>1</title>
    <desc>Created with Sketch.</desc>
    <defs></defs>
    <g id="Page-2" stroke="none" stroke-width="1" fill="none" fill-rule="evenodd" opacity="0.800000012">
        <g id="Artboard" transform="translate(-27.000000, -51.000000)" fill="#FFFFFF">
            <path d="M41.453125,64.8652344 C41.5533859,64.874349 41.637695,64.910807 41.7060547,64.9746094 C41.7744144,65.0384118 41.8085938,65.1227208 41.8085938,65.2275391 C41.8085938,65.3323573 41.7744144,65.418945 41.7060547,65.4873047 C41.637695,65.5556644 41.5533859,65.5898438 41.453125,65.5898438 L28.3554688,65.5898438 C28.2552078,65.5898438 28.1708988,65.5556644 28.1025391,65.4873047 C28.0341793,65.418945 28,65.3323573 28,65.2275391 C28,65.1227208 28.0341793,65.0384118 28.1025391,64.9746094 C28.1708988,64.910807 28.2552078,64.874349 28.3554688,64.8652344 L41.453125,64.8652344 Z M29.2167969,63.9082031 C29.0253897,63.8990885 28.8636074,63.8352871 28.7314453,63.7167969 C28.5992832,63.5983067 28.5149741,63.4433603 28.4785156,63.2519531 L28.4785156,63.2246094 L28.5195312,60.9003906 L36.5175781,52 L39.5390625,54.7207031 L31.5410156,63.6210938 L29.2441406,63.9082031 L29.2167969,63.9082031 Z M29.2441406,61.1875 L29.203125,63.1699219 C29.203125,63.1790365 29.2122395,63.1835938 29.2304688,63.1835938 L31.1855469,62.9375 L37.0644531,56.4023438 L35.109375,54.6386719 L29.2441406,61.1875 Z M36.5722656,53.0253906 L35.5878906,54.1054688 L37.5429688,55.8554688 L38.5273438,54.7753906 L36.5722656,53.0253906 Z" id="1"></path>
        </g>
    </g>
</svg>