<?xml version="1.0" encoding="UTF-8"?>
<svg width="16px" height="16px" viewBox="0 0 16 16" version="1.1" xmlns="http://www.w3.org/2000/svg" xmlns:xlink="http://www.w3.org/1999/xlink">
    <!-- Generator: Sketch 49.1 (51147) - http://www.bohemiancoding.com/sketch -->
    <title>3</title>
    <desc>Created with Sketch.</desc>
    <defs></defs>
    <g id="Page-2" stroke="none" stroke-width="1" fill="none" fill-rule="evenodd" opacity="0.800000012">
        <g id="Artboard" transform="translate(-95.000000, -51.000000)" fill="#FFFFFF">
            <path d="M106.623047,58.181123 L106.623047,53.5996094 C106.613932,53.3261705 106.520509,53.1005868 106.342773,52.9228516 C106.165038,52.7451163 105.939454,52.6516928 105.666016,52.6425781 L96.6425781,52.6425781 L96.6425781,62.5820312 C96.6516928,62.8554701 96.7473949,63.0810538 96.9296875,63.2587891 C97.1119801,63.4365243 97.3398424,63.5299479 97.6132812,63.5390625 L101.344289,63.5390625 L106.623047,58.181123 Z M96,52 L105.666016,52 C106.121747,52.0091146 106.499998,52.164061 106.800781,52.4648438 C107.101564,52.7656265 107.25651,53.1438779 107.265625,53.5996094 L107.265625,58.453125 L101.605469,64.1816406 L97.6132812,64.1816406 C97.1575498,64.172526 96.7792984,64.0175796 96.4785156,63.7167969 C96.1777329,63.4160141 96.0182293,63.0377627 96,62.5820312 L96,52 Z M106.226562,59.8613281 L107.429688,58.671875 L109.166016,60.4082031 L107.744141,61.8164062 L106.007812,60.0800781 L106.226562,59.8613281 Z M107.424451,59.5689827 L106.916582,60.0841079 L107.74977,60.9084329 L108.256836,60.4013672 L107.424451,59.5689827 Z M102.507812,63.7578125 L106.28125,59.9980469 L108.017578,61.734375 L104.189453,65.5625 L102.001953,65.9863281 L102.439453,63.8261719 L102.507812,63.7578125 Z M106.273978,60.9067902 L103.036969,64.1313012 L102.823899,65.1700182 L103.855228,64.9672783 L107.101113,61.7339254 L106.273978,60.9067902 Z M101.386719,60.3398438 C101.505209,60.3398438 101.605468,60.380859 101.6875,60.4628906 C101.769532,60.5449223 101.815104,60.6497389 101.824219,60.7773438 L101.824219,60.8867188 C101.824219,61.0052089 101.780925,61.107747 101.694336,61.1943359 C101.607747,61.2809249 101.50293,61.3242188 101.379883,61.3242188 C101.256835,61.3242188 101.154297,61.2809249 101.072266,61.1943359 C100.990234,61.107747 100.944662,61.0052089 100.935547,60.8867188 L100.935547,60.7773438 C100.944662,60.6497389 100.990234,60.5449223 101.072266,60.4628906 C101.154297,60.380859 101.259114,60.3398438 101.386719,60.3398438 Z M99.3359375,56.8398438 C99.3359375,55.3723885 100.014967,54.6477864 101.373047,54.6660156 C102.548834,54.7115888 103.159505,55.3177025 103.205078,56.484375 C103.205078,56.9036479 102.927086,57.368487 102.371094,57.8789062 C101.833331,58.3984401 101.564453,58.840493 101.564453,59.2050781 L101.564453,59.5195312 C101.573568,59.5377605 101.555339,59.5856116 101.509766,59.6630859 C101.464192,59.7405603 101.36849,59.7838541 101.222656,59.7929688 C101.067708,59.7838541 100.969727,59.7405603 100.928711,59.6630859 C100.887695,59.5856116 100.867188,59.5377605 100.867188,59.5195312 L100.867188,59.0683594 C100.867188,58.6308572 101.14518,58.1295601 101.701172,57.5644531 C102.120445,57.1269509 102.352864,56.7669285 102.398438,56.484375 C102.380208,55.8554656 102.061201,55.5045577 101.441406,55.4316406 C100.502599,55.3860675 100.046875,55.8554638 100.074219,56.8398438 C100.065104,56.93099 100.026368,57.003906 99.9580078,57.0585938 C99.8896481,57.1132815 99.805339,57.140625 99.7050781,57.140625 C99.5501294,57.1223957 99.44987,57.0699874 99.4042969,56.9833984 C99.3587237,56.8968095 99.3359375,56.8489584 99.3359375,56.8398438 Z" id="3"></path>
        </g>
    </g>
</svg>