<?xml version="1.0" encoding="UTF-8"?>
<svg width="16px" height="16px" viewBox="0 0 16 16" version="1.1" xmlns="http://www.w3.org/2000/svg" xmlns:xlink="http://www.w3.org/1999/xlink">
    <!-- Generator: Sketch 49.1 (51147) - http://www.bohemiancoding.com/sketch -->
    <title>4</title>
    <desc>Created with Sketch.</desc>
    <defs></defs>
    <g id="Page-2" stroke="none" stroke-width="1" fill="none" fill-rule="evenodd" opacity="0.800000012">
        <g id="Artboard" transform="translate(-129.000000, -51.000000)" fill="#FFFFFF">
            <path d="M140.091797,58.140625 L134.035156,58.140625 C133.953125,58.140625 133.882487,58.1132815 133.823242,58.0585938 C133.763997,58.003906 133.734375,57.9332687 133.734375,57.8466797 C133.734375,57.7600907 133.763997,57.6894534 133.823242,57.6347656 C133.882487,57.5800779 133.953125,57.5527344 134.035156,57.5527344 L140.091797,57.5527344 C140.173829,57.5527344 140.244466,57.5800779 140.303711,57.6347656 C140.362956,57.6894534 140.392578,57.7600907 140.392578,57.8466797 C140.392578,57.9332687 140.362956,58.003906 140.303711,58.0585938 C140.244466,58.1132815 140.173829,58.140625 140.091797,58.140625 Z M140.091797,60.4648438 L134.035156,60.4648438 C133.953125,60.4557291 133.882487,60.4238284 133.823242,60.3691406 C133.763997,60.3144529 133.734375,60.2460942 133.734375,60.1640625 C133.734375,60.0820308 133.763997,60.0113935 133.823242,59.9521484 C133.882487,59.8929033 133.953125,59.8632812 134.035156,59.8632812 L140.091797,59.8632812 C140.173829,59.8632812 140.244466,59.8929033 140.303711,59.9521484 C140.362956,60.0113935 140.392578,60.0820308 140.392578,60.1640625 C140.392578,60.2460942 140.362956,60.3144529 140.303711,60.3691406 C140.244466,60.4238284 140.173829,60.4557291 140.091797,60.4648438 Z M140.091797,62.7753906 L134.035156,62.7753906 C133.953125,62.7753906 133.882487,62.7480471 133.823242,62.6933594 C133.763997,62.6386716 133.734375,62.5680343 133.734375,62.4814453 C133.734375,62.3948563 133.763997,62.324219 133.823242,62.2695312 C133.882487,62.2148435 133.953125,62.1875 134.035156,62.1875 L140.091797,62.1875 C140.173829,62.1875 140.244466,62.2148435 140.303711,62.2695312 C140.362956,62.324219 140.392578,62.3948563 140.392578,62.4814453 C140.392578,62.5680343 140.362956,62.6386716 140.303711,62.6933594 C140.244466,62.7480471 140.173829,62.7753906 140.091797,62.7753906 Z M139.203125,55.1601562 L134.417969,55.1601562 C134.317708,55.1510416 134.240235,55.112305 134.185547,55.0439453 C134.130859,54.9755856 134.103516,54.8935552 134.103516,54.7978516 C134.103516,54.702148 134.135416,54.6201175 134.199219,54.5517578 C134.263021,54.4833981 134.335937,54.4446615 134.417969,54.4355469 L135.347656,54.4355469 L135.333984,54.3125 C135.343099,53.9023417 135.49121,53.5810558 135.77832,53.3486328 C136.065431,53.1162098 136.418618,53 136.837891,53 C137.257164,53 137.601236,53.1162098 137.870117,53.3486328 C138.138999,53.5810558 138.277995,53.9023417 138.287109,54.3125 L138.273438,54.4355469 L139.203125,54.4355469 C139.294271,54.4355469 139.37858,54.4674476 139.456055,54.53125 C139.533529,54.5950524 139.572266,54.6839187 139.572266,54.7978516 C139.572266,54.9117844 139.535808,55.0006507 139.462891,55.0644531 C139.389974,55.1282555 139.303386,55.1601562 139.203125,55.1601562 Z M142.224609,55.1328125 L140.720703,55.1328125 C140.629557,55.1236979 140.552084,55.0872399 140.488281,55.0234375 C140.424479,54.9596351 140.392578,54.8821619 140.392578,54.7910156 C140.392578,54.6907547 140.424479,54.6087243 140.488281,54.5449219 C140.552084,54.4811195 140.629557,54.4492188 140.720703,54.4492188 L142.251953,54.4492188 C142.434246,54.4492188 142.586913,54.5107416 142.709961,54.6337891 C142.833008,54.7568366 142.894531,54.9095043 142.894531,55.0917969 L142.894531,65.2089844 C142.894531,65.391277 142.833008,65.5439447 142.709961,65.6669922 C142.586913,65.7900397 142.434246,65.8515625 142.251953,65.8515625 L131.642578,65.8515625 C131.460286,65.8515625 131.307618,65.7900397 131.18457,65.6669922 C131.061523,65.5439447 131,65.391277 131,65.2089844 L131,55.0917969 C131,54.9095043 131.061523,54.7568366 131.18457,54.6337891 C131.307618,54.5107416 131.460286,54.4492188 131.642578,54.4492188 L133.1875,54.4492188 C133.287761,54.4492188 133.369791,54.4811195 133.433594,54.5449219 C133.497396,54.6087243 133.529297,54.6884761 133.529297,54.7841797 C133.529297,54.8798833 133.497396,54.9596351 133.433594,55.0234375 C133.369791,55.0872399 133.287761,55.1236979 133.1875,55.1328125 L131.669922,55.1328125 L131.669922,65.1679688 L142.224609,65.1679688 L142.224609,55.1328125 Z" id="4"></path>
        </g>
    </g>
</svg>