<?xml version="1.0" encoding="UTF-8"?>
<svg width="15px" height="12px" viewBox="0 0 15 12" version="1.1" xmlns="http://www.w3.org/2000/svg" xmlns:xlink="http://www.w3.org/1999/xlink">
    <!-- Generator: Sketch 49.1 (51147) - http://www.bohemiancoding.com/sketch -->
    <title>calendar</title>
    <desc>Created with Sketch.</desc>
    <defs></defs>
    <g id="Page-2" stroke="none" stroke-width="1" fill="none" fill-rule="evenodd" fill-opacity="0.25">
        <g id="Artboard-2" transform="translate(-260.000000, -372.000000)" fill="#000000">
            <g id="calendar" transform="translate(260.000000, 372.000000)">
                <path d="M9.95357958,6.53989705 L4.0823581,6.53989705 C3.81207568,6.53989705 3.59335003,6.3211714 3.59335003,6.05088898 L3.59335003,6.05088898 C3.59335003,5.78060657 3.81207568,5.56188091 4.0823581,5.56188091 L9.9551419,5.56188091 C10.2254243,5.56188091 10.44415,5.78060657 10.44415,6.05088898 L10.44415,6.05088898 C10.4425876,6.3211714 10.223862,6.53989705 9.95357958,6.53989705 L9.95357958,6.53989705 Z M9.95357958,3.89175431 L4.0823581,3.89175431 C3.81207568,3.89175431 3.59335003,3.67302866 3.59335003,3.40274624 L3.59335003,3.40274624 C3.59335003,3.13246383 3.81207568,2.91373817 4.0823581,2.91373817 L9.9551419,2.91373817 C10.2254243,2.91373817 10.44415,3.13246383 10.44415,3.40274624 L10.44415,3.40274624 C10.4425876,3.67302866 10.223862,3.89175431 9.95357958,3.89175431 L9.95357958,3.89175431 Z M12.9110629,11.1237618 L11.1050139,11.1237618 L11.1050139,11.5096564 C11.1050139,11.7799388 10.8862883,11.9986644 10.6160058,11.9986644 L10.6160058,11.9986644 C10.3457234,11.9986644 10.1269978,11.7799388 10.1269978,11.5096564 L10.1269978,11.1237618 L3.9089399,11.1237618 L3.9089399,11.5096564 C3.9089399,11.7799388 3.69021425,11.9986644 3.41993183,11.9986644 L3.41993183,11.9986644 C3.14964942,11.9986644 2.93092376,11.7799388 2.93092376,11.5096564 L2.93092376,11.1237618 L1.12487479,11.1237618 C0.503069004,11.1237618 0,10.6206928 0,9.99888703 L0,1.12487479 C0,0.503069004 0.503069004,0 1.12487479,0 L12.9126252,0 C13.534431,0 14.0375,0.503069004 14.0375,1.12487479 L14.0375,9.99888703 C14.0359377,10.6191305 13.5328687,11.1237618 12.9110629,11.1237618 L12.9110629,11.1237618 Z M1.12487479,9.99888703 L2.93248609,9.99888703 L2.93248609,9.74579021 C2.93248609,9.47550779 3.15121174,9.25678214 3.42149416,9.25678214 L3.42149416,9.25678214 C3.69177657,9.25678214 3.91050223,9.47550779 3.91050223,9.74579021 L3.91050223,9.99888703 L10.1285601,9.99888703 L10.1285601,9.74579021 C10.1285601,9.47550779 10.3472858,9.25678214 10.6175682,9.25678214 L10.6175682,9.25678214 C10.8878506,9.25678214 11.1065762,9.47550779 11.1065762,9.74579021 L11.1065762,9.99888703 L12.9141875,9.99888703 L12.9141875,9.99888703 L12.9141875,8.46624513 L1.12487479,8.46624513 L1.12487479,9.99888703 L1.12487479,9.99888703 L1.12487479,9.99888703 Z M12.9110629,1.12487479 L1.12487479,1.12487479 L1.12487479,1.12487479 L1.12487479,7.49291597 L12.9126252,7.49291597 L12.9126252,1.12487479 L12.9110629,1.12487479 L12.9110629,1.12487479 Z" id="Shape" transform="translate(7.018750, 5.999332) scale(1, -1) translate(-7.018750, -5.999332) "></path>
            </g>
        </g>
    </g>
</svg>