<?xml version="1.0" encoding="UTF-8"?>
<svg width="52px" height="41px" viewBox="0 0 52 41" version="1.1" xmlns="http://www.w3.org/2000/svg" xmlns:xlink="http://www.w3.org/1999/xlink">
    <!-- Generator: Sketch 49.1 (51147) - http://www.bohemiancoding.com/sketch -->
    <title>上传</title>
    <desc>Created with Sketch.</desc>
    <defs></defs>
    <g id="Page-2" stroke="none" stroke-width="1" fill="none" fill-rule="evenodd">
        <g id="Artboard-2" transform="translate(-75.000000, -357.000000)" fill="#07C88D">
            <path d="M101,374.071158 L101.011549,374.060027 L109.998786,382.721879 L107.372379,385.253195 L102.857143,380.901434 L102.857143,396.20976 C102.857143,397.198458 102.025897,398 101,398 C99.9743348,398 99.1428571,397.198794 99.1428571,396.209816 L99.1428571,380.901434 L94.6276205,385.253139 L92.0012143,382.721823 L100.988451,374.060027 L101,374.071158 Z M101.464286,357 C109.194469,357 115.63533,362.316464 117.133929,369.361528 C122.582844,369.361528 127,373.61876 127,378.870396 C127,383.839226 123.045504,387.917188 118.004464,388.21146 L112.948963,388.21146 C111.917572,388.21146 111.098214,387.381924 111.098214,386.35864 L111.098214,386.48447 C111.098214,385.461929 111.924994,384.631651 112.944877,384.631651 L117.366071,384.631651 C120.656,384.509825 123.285714,382.070018 123.285714,378.870396 C123.285714,375.666355 120.648629,373.056338 117.352259,372.945476 C117.350402,372.990671 114.550298,373.011743 114.550298,373.011743 C114.04307,373.016978 113.600473,372.608756 113.563091,372.100587 C113.563091,372.100587 113.410996,370.06222 113.423705,370.057241 C112.326888,364.655813 107.389848,360.579809 101.464286,360.579809 C97.8172634,360.579809 94.5446875,362.123993 92.3236027,364.60715 C92.3236027,364.60715 91.7432455,365.138528 91.2209241,365.977546 C90.8628437,366.55272 90.7019852,366.875577 90.7019852,366.875577 C90.4566254,367.323723 89.8548731,367.643138 89.3509384,367.593221 C89.3509384,367.593221 87.4486607,367.375853 86.3852143,367.449071 C82.0413571,368.090584 78.7142857,371.707645 78.7142857,376.07367 C78.7142857,380.892764 82.7677321,384.631651 87.796875,384.633776 C88.7820893,384.677629 89.8571429,385.46116 89.8571429,386.421555 C89.8571429,387.410086 88.851558,388.21146 87.7678571,388.21146 C80.7164018,388.21146 75,382.869881 75,376.07367 C75,369.277458 80.7164018,363.768076 87.7678571,363.768076 C87.9340134,363.768076 88.099183,363.771936 88.2638304,363.778033 C91.1195937,359.689555 95.9659821,357 101.464286,357 Z" id="上传"></path>
        </g>
    </g>
</svg>