<?xml version="1.0" encoding="UTF-8"?>
<svg width="16px" height="16px" viewBox="0 0 16 16" version="1.1" xmlns="http://www.w3.org/2000/svg" xmlns:xlink="http://www.w3.org/1999/xlink">
    <!-- Generator: Sketch 49.1 (51147) - http://www.bohemiancoding.com/sketch -->
    <title>2</title>
    <desc>Created with Sketch.</desc>
    <defs></defs>
    <g id="Page-2" stroke="none" stroke-width="1" fill="none" fill-rule="evenodd" opacity="0.800000012">
        <g id="Artboard" transform="translate(-61.000000, -52.000000)" fill="#FFFFFF">
            <path d="M72.4335938,61.1367188 L70.1367188,61.1367188 L70.1367188,63.40625 C70.1458334,63.9166692 70.2985011,64.3678366 70.5947266,64.7597656 C70.890952,65.1516947 71.289711,65.4160149 71.7910156,65.5527344 C72.0826838,65.634766 72.3766261,65.652995 72.6728516,65.6074219 C72.969077,65.5618487 73.2539049,65.4615893 73.5273438,65.3066406 C73.6002608,65.2701821 73.6708981,65.2610676 73.7392578,65.2792969 C73.8076175,65.2975261 73.8645831,65.3362627 73.9101562,65.3955078 C73.9557294,65.4547529 73.9694011,65.5231116 73.9511719,65.6005859 C73.9329426,65.6780603 73.8919274,65.7395831 73.828125,65.7851562 C73.4999984,65.9765635 73.151369,66.0996091 72.7822266,66.1542969 C72.4130841,66.2089846 72.0462258,66.1861984 71.6816406,66.0859375 C71.0527312,65.9036449 70.5514342,65.5664087 70.1777344,65.0742188 C69.8040346,64.5820288 69.6126303,64.0169303 69.6035156,63.3789062 L69.6035156,60.5488281 L72.5976562,60.5488281 L72.8574219,60.5761719 C72.9576828,60.5944011 73.0488277,60.6126301 73.1308594,60.6308594 C73.8873736,60.8496105 74.4524721,61.2825488 74.8261719,61.9296875 C75.1998717,62.5768262 75.2955738,63.2831993 75.1132812,64.0488281 C75.095052,64.1217452 75.0540368,64.1787107 74.9902344,64.2197266 C74.926432,64.2607424 74.8580733,64.2698569 74.7851562,64.2470703 C74.7122392,64.2242837 74.6552736,64.1809899 74.6142578,64.1171875 C74.573242,64.0533851 74.5664061,63.9850264 74.59375,63.9121094 C74.7304694,63.2832 74.6507176,62.7112656 74.3544922,62.1962891 C74.0582667,61.6813125 73.6048208,61.3372404 72.9941406,61.1640625 C72.9485675,61.1549479 72.8710943,61.1458334 72.7617188,61.1367188 L72.5429688,61.109375 C72.4609371,61.1276043 72.4244791,61.1367188 72.4335938,61.1367188 Z M65.7890625,59.5917969 C65.0052044,59.5735676 64.348961,59.3001329 63.8203125,58.7714844 C63.291664,58.2428359 63.0182293,57.5820352 63,56.7890625 C63.0182293,56.0052044 63.291664,55.348961 63.8203125,54.8203125 C64.348961,54.291664 65.0052044,54.0182293 65.7890625,54 C66.5820352,54.0182293 67.2428359,54.291664 67.7714844,54.8203125 C68.3001329,55.348961 68.5735676,56.0052044 68.5917969,56.7890625 L68.5917969,59.5917969 L65.7890625,59.5917969 Z M68.03125,56.7890625 C68.0130207,56.1601531 67.7942729,55.6337912 67.375,55.2099609 C66.9557271,54.7861307 66.4270865,54.5696615 65.7890625,54.5605469 C65.1601531,54.5696615 64.6337912,54.7861307 64.2099609,55.2099609 C63.7861307,55.6337912 63.5696615,56.1601531 63.5605469,56.7890625 C63.5696615,57.4270865 63.7861307,57.9557271 64.2099609,58.375 C64.6337912,58.7942729 65.1601531,59.0130207 65.7890625,59.03125 L68.03125,59.03125 L68.03125,56.7890625 Z M65.7890625,60.5761719 L68.5917969,60.5761719 L68.5917969,63.3789062 C68.5735676,64.1627643 68.3001329,64.8190078 67.7714844,65.3476562 C67.2428359,65.8763047 66.5820352,66.1542967 65.7890625,66.1816406 C65.0052044,66.1542967 64.348961,65.8763047 63.8203125,65.3476562 C63.291664,64.8190078 63.0182293,64.1627643 63,63.3789062 C63.0182293,62.5859335 63.291664,61.9251329 63.8203125,61.3964844 C64.348961,60.8678359 65.0052044,60.5944011 65.7890625,60.5761719 Z M65.7890625,61.1367188 C65.1601531,61.154948 64.6337912,61.3736958 64.2099609,61.7929688 C63.7861307,62.2122417 63.5696615,62.7408822 63.5605469,63.3789062 C63.5696615,64.0078156 63.7861307,64.5341776 64.2099609,64.9580078 C64.6337912,65.3818381 65.1601531,65.6028645 65.7890625,65.6210938 C66.4270865,65.6028645 66.9557271,65.3818381 67.375,64.9580078 C67.7942729,64.5341776 68.0130207,64.0078156 68.03125,63.3789062 L68.03125,61.1367188 L65.7890625,61.1367188 Z M72.3789062,59.5917969 L69.5761719,59.5917969 L69.5761719,56.7890625 C69.5944011,56.0052044 69.8678359,55.348961 70.3964844,54.8203125 C70.9251329,54.291664 71.5859335,54.0182293 72.3789062,54 C73.1627643,54.0182293 73.8190078,54.291664 74.3476562,54.8203125 C74.8763047,55.348961 75.1542967,56.0052044 75.1816406,56.7890625 C75.1542967,57.5820352 74.8763047,58.2428359 74.3476562,58.7714844 C73.8190078,59.3001329 73.1627643,59.5735676 72.3789062,59.5917969 Z M72.3789062,59.03125 C73.0078156,59.0130207 73.5341776,58.7942729 73.9580078,58.375 C74.3818381,57.9557271 74.6028645,57.4270865 74.6210938,56.7890625 C74.6028645,56.1601531 74.3818381,55.6337912 73.9580078,55.2099609 C73.5341776,54.7861307 73.0078156,54.5696615 72.3789062,54.5605469 C71.7408822,54.5696615 71.2122417,54.7861307 70.7929688,55.2099609 C70.3736958,55.6337912 70.154948,56.1601531 70.1367188,56.7890625 L70.1367188,59.03125 L72.3789062,59.03125 Z" id="2"></path>
        </g>
    </g>
</svg>